<svg width="100" height="114" viewBox="0 0 100 114" fill="none" xmlns="http://www.w3.org/2000/svg">
<path d="M100 0L90.8897 102.058L49.9388 113.411L9.10061 102.074L0 0H100Z" fill="#264DE4"/>
<path d="M83.0904 95.5594L90.8757 8.34619H50V104.733L83.0904 95.5594Z" fill="#2965F1"/>
<path d="M20.8628 46.2036L21.9848 58.7224H49.9998V46.2036H20.8628Z" fill="#EBEBEB"/>
<path d="M50 20.8652H49.9567H18.6084L19.7464 33.3843H50V20.8652Z" fill="#EBEBEB"/>
<path d="M50.0001 91.742V78.717L49.9452 78.7316L36.0028 74.9669L35.1115 64.9824H28.3366H22.5444L24.2983 84.639L49.9425 91.758L50.0001 91.742Z" fill="#EBEBEB"/>
<path d="M65.3722 58.7227L63.9191 74.9589L49.9565 78.7275V91.7519L75.6211 84.639L75.8094 82.5239L78.7512 49.5656L79.0566 46.2039L81.3167 20.8652H49.9565V33.3843H67.597L66.4579 46.2039H49.9565V58.7227H65.3722Z" fill="white"/>
</svg>
