<svg width="144" height="158" viewBox="0 0 144 158" fill="none" xmlns="http://www.w3.org/2000/svg">
<path d="M47.0849 152.807C60.5014 152.807 71.3901 141.918 71.3901 128.501V104.196H47.0849C33.6685 104.196 22.7798 115.085 22.7798 128.501C22.7798 141.918 33.6685 152.807 47.0849 152.807Z" fill="#0ACF83"/>
<path d="M22.7798 79.8906C22.7798 66.4742 33.6685 55.5854 47.0849 55.5854H71.3901V104.196H47.0849C33.6685 104.196 22.7798 93.307 22.7798 79.8906Z" fill="#A259FF"/>
<path d="M22.7798 31.2802C22.7798 17.8638 33.6685 6.9751 47.0849 6.9751H71.3901V55.5854H47.0849C33.6685 55.5854 22.7798 44.6967 22.7798 31.2802Z" fill="#F24E1E"/>
<path d="M71.3896 6.9751H95.6948C109.111 6.9751 120 17.8638 120 31.2802C120 44.6967 109.111 55.5854 95.6948 55.5854H71.3896V6.9751Z" fill="#FF7262"/>
<path d="M120 79.8906C120 93.307 109.111 104.196 95.6948 104.196C82.2784 104.196 71.3896 93.307 71.3896 79.8906C71.3896 66.4742 82.2784 55.5854 95.6948 55.5854C109.111 55.5854 120 66.4742 120 79.8906Z" fill="#1ABCFE"/>
</svg>
