<svg width="202" height="220" viewBox="0 0 202 220" fill="none" xmlns="http://www.w3.org/2000/svg">
<path d="M101 68C50.5324 68 11 89.5898 11 117.154C11 144.718 50.5324 166.307 101 166.307C151.467 166.307 191 144.718 191 117.154C191 89.5898 151.467 68 101 68ZM91.6548 83.1242H101.48L98.3598 98.2485H107.135C112.7 98.2485 116.435 99.0349 118.565 100.993C120.642 102.929 121.272 106.105 120.44 110.431L116.54 128.497H106.55L110.142 111.792C110.577 109.501 110.405 107.905 109.64 107.066C108.882 106.226 107.21 105.811 104.705 105.811H96.8373L92.0898 128.497H82.2498L91.6548 83.1242V83.1242ZM48.4999 98.2485H68.4949C78.0273 98.2485 83.8023 104.691 81.5448 114.303C78.9198 125.472 71.8999 128.497 58.9699 128.497H52.7899L50.8324 139.84H40.8949L48.4999 98.2485ZM127.25 98.2485H147.245C156.777 98.2485 162.552 104.691 160.295 114.303C157.67 125.472 150.642 128.497 137.72 128.497H131.54L129.582 139.84H119.645L127.25 98.2485ZM57.0124 105.811L54.1849 120.935H60.5974C66.1474 120.935 71.3074 120.3 72.1699 111.951C72.4924 108.722 71.1574 105.811 64.7449 105.811H57.0124ZM135.762 105.811L132.935 120.935H139.347C144.897 120.935 150.057 120.3 150.92 111.951C151.242 108.722 149.915 105.811 143.495 105.811H135.762V105.811Z" fill="#8993C1"/>
</svg>
