<svg width="77" height="67" viewBox="0 0 77 67" fill="none" xmlns="http://www.w3.org/2000/svg">
<g clip-path="url(#clip0_197_132)">
<path d="M46.8395 48.5305C44.9185 51.2261 42.8251 53.7979 40.5721 56.2303C46.5704 61.976 52.1525 64.6665 55.245 62.9C58.3445 61.137 58.7715 55.0231 56.7302 47.0259C53.67 47.6985 50.3444 48.2083 46.8395 48.5305ZM42.1398 48.8385C39.4193 48.9496 36.6953 48.9496 33.9747 48.8385C35.3272 50.5802 36.694 52.1945 38.0573 53.6673C39.4205 52.1945 40.7838 50.5802 42.1398 48.8385ZM60.2208 20.8925C69.7815 23.5971 76.0237 28.0932 76.0237 33.5202C76.0237 38.9473 69.7815 43.4433 60.2208 46.148C62.6244 55.671 61.8029 63.254 57.0423 65.9658C52.2781 68.6811 45.2107 65.594 38.0573 58.7792C30.9038 65.594 23.8365 68.6811 19.0723 65.9658C14.3117 63.254 13.4866 55.671 15.8938 46.148C6.33305 43.4433 0.0908203 38.9473 0.0908203 33.5202C0.0908203 28.0932 6.33305 23.5971 15.8938 20.8925C13.4901 11.3694 14.3117 3.78643 19.0723 1.07467C23.8365 -1.64064 30.9038 1.44638 38.0573 8.26118C45.2107 1.44638 52.2781 -1.64064 57.0423 1.07467C61.8029 3.78643 62.628 11.3694 60.2208 20.8925ZM56.7302 20.0145C58.775 12.0138 58.3445 5.90344 55.2485 4.14044C52.1525 2.3739 46.5704 5.06442 40.5757 10.8101C42.8262 13.2437 44.9183 15.8155 46.8395 18.5099C50.348 18.8286 53.67 19.3383 56.7302 20.0145ZM19.3844 47.0259C17.3395 55.0267 17.77 61.137 20.866 62.9C23.962 64.6665 29.5442 61.976 35.5389 56.2303C33.2871 53.7978 31.1949 51.226 29.2751 48.5305C25.9491 48.2371 22.6455 47.7346 19.3844 47.0259ZM33.9747 18.202C36.6953 18.0908 39.4193 18.0908 42.1398 18.202C40.8502 16.5362 39.488 14.9263 38.0573 13.3767C36.694 14.8494 35.3308 16.4637 33.9747 18.2055V18.202ZM29.2751 18.5099C31.1972 15.8143 33.2918 13.2424 35.546 10.8101C29.5442 5.06442 23.9584 2.3739 20.8696 4.14044C17.77 5.90344 17.3431 12.0173 19.3844 20.0145C22.4445 19.3419 25.7701 18.8321 29.2751 18.5099ZM44.852 45.1319C47.4057 41.4337 49.6757 37.5524 51.6431 33.5202C49.6757 29.4881 47.4057 25.6067 44.852 21.9085C40.3285 21.5743 35.7861 21.5743 31.2626 21.9085C28.7089 25.6067 26.4388 29.4881 24.4715 33.5202C26.4388 37.5524 28.7089 41.4337 31.2626 45.1319C35.7861 45.4661 40.3285 45.4661 44.852 45.1319ZM49.4583 44.6682C51.6646 44.385 53.7633 44.0203 55.7364 43.592C55.0912 41.5945 54.3587 39.6255 53.5409 37.6905C52.2781 40.0698 50.916 42.3965 49.4583 44.6646V44.6682ZM26.6562 22.3687C24.4499 22.6519 22.3512 23.0166 20.3781 23.4449C20.988 25.3424 21.7199 27.3179 22.5737 29.3464C23.8365 26.9671 25.1985 24.6404 26.6562 22.3723V22.3687ZM20.3781 43.5884C22.3512 44.0168 24.4499 44.3779 26.6562 44.6646C25.1985 42.3965 23.8365 40.0698 22.5737 37.6905C21.7556 39.6242 21.023 41.592 20.3781 43.5884ZM16.8696 42.7211C17.8059 39.7686 19.0221 36.6745 20.4929 33.5167C19.0891 30.5272 17.8789 27.4529 16.8696 24.3123C8.82636 26.5673 3.67831 29.9907 3.67831 33.5167C3.67831 37.0427 8.82636 40.466 16.8696 42.7211ZM55.7364 23.4449C53.6602 22.9982 51.5656 22.6391 49.4583 22.3687C50.9161 24.6369 52.2781 26.9636 53.5409 29.3428C54.3947 27.3179 55.1266 25.3424 55.7364 23.4449ZM59.245 24.3123C58.3087 27.2648 57.0925 30.3589 55.6216 33.5167C57.0925 36.6745 58.3087 39.7686 59.245 42.7211C67.2882 40.466 72.4361 37.0427 72.4361 33.5167C72.4361 29.9907 67.2882 26.5673 59.245 24.3123ZM38.0573 40.1757C37.1716 40.1757 36.2946 40.0036 35.4763 39.6691C34.658 39.3346 33.9145 38.8444 33.2882 38.2264C32.6619 37.6083 32.1651 36.8746 31.8262 36.0672C31.4873 35.2597 31.3128 34.3942 31.3128 33.5202C31.3128 32.6462 31.4873 31.7807 31.8262 30.9733C32.1651 30.1658 32.6619 29.4321 33.2882 28.8141C33.9145 28.196 34.658 27.7058 35.4763 27.3713C36.2946 27.0369 37.1716 26.8647 38.0573 26.8647C39.846 26.8647 41.5615 27.5659 42.8264 28.8141C44.0912 30.0622 44.8018 31.7551 44.8018 33.5202C44.8018 35.2854 44.0912 36.9782 42.8264 38.2264C41.5615 39.4745 39.846 40.1757 38.0573 40.1757Z" fill="#61DAFB"/>
</g>
<defs>
<clipPath id="clip0_197_132">
<rect width="77" height="67" fill="white"/>
</clipPath>
</defs>
</svg>
